<svg preserveAspectRatio="none" overflow="visible" style="display: block;" width="18" height="18" viewBox="0 0 18 18" fill="none" xmlns="http://www.w3.org/2000/svg">
<g id="Whatsapp" clip-path="url(#clip0_0_39)">
<path id="Vector" d="M13.3692 10.6632L11.9883 9.6068C11.7597 9.43271 11.4759 9.34723 11.1892 9.36617C10.9025 9.3851 10.6324 9.50717 10.4288 9.7098L9.8891 10.2495C9.47697 10.1472 9.09363 9.95214 8.76832 9.67922L8.72121 9.63949C8.59011 9.52928 8.46883 9.40789 8.35875 9.27668L8.32043 9.23098C8.04724 8.90552 7.85208 8.52192 7.74984 8.10949L8.28914 7.5702C8.49165 7.36672 8.61374 7.09687 8.63286 6.81043C8.65199 6.524 8.56687 6.24031 8.3932 6.01172L7.33676 4.63219C7.16806 4.41094 6.92983 4.25288 6.66041 4.18343C6.39099 4.11399 6.10604 4.1372 5.85141 4.24934L5.69461 4.31965C5.24265 4.51877 4.85682 4.84261 4.58235 5.25319C4.30788 5.66378 4.15614 6.1441 4.14492 6.63785C4.11073 8.30747 4.68404 9.9327 5.75824 11.2113L5.82855 11.2932C6.09565 11.611 6.38971 11.9051 6.70746 12.1721L6.78937 12.2425C8.03137 13.2846 9.60059 13.8562 11.2219 13.8572C11.2688 13.8572 11.3167 13.8572 11.3657 13.8572C11.8596 13.8456 12.34 13.6934 12.7505 13.4184C13.161 13.1434 13.4845 12.7571 13.6832 12.3047L13.7535 12.1479C13.8652 11.8932 13.888 11.6083 13.8183 11.3391C13.7486 11.0698 13.5905 10.8318 13.3692 10.6632ZM12.9146 11.7816L12.8443 11.9384C12.7156 12.2307 12.5061 12.4803 12.2406 12.6579C11.975 12.8355 11.6643 12.9337 11.3449 12.941C11.3031 12.941 11.2613 12.941 11.2198 12.941C9.81402 12.9403 8.45333 12.445 7.37613 11.5418L7.29422 11.4715C7.01675 11.2383 6.75997 10.9815 6.52676 10.704L6.45645 10.6218C5.52415 9.51203 5.02688 8.10132 5.05723 6.65227C5.06452 6.33283 5.16271 6.02209 5.34029 5.75647C5.51787 5.49084 5.76749 5.28133 6.05988 5.1525L6.21668 5.08219C6.28434 5.05287 6.35991 5.04722 6.43117 5.06617C6.50243 5.08512 6.56522 5.12755 6.60938 5.1866L7.66582 6.56613C7.70578 6.61851 7.72541 6.68358 7.72108 6.74932C7.71675 6.81505 7.68875 6.87699 7.64227 6.92367L6.9293 7.63699C6.87806 7.68822 6.83974 7.75089 6.81749 7.81984C6.79524 7.88879 6.7897 7.96204 6.80133 8.03355C6.90869 8.6918 7.19182 9.30883 7.62082 9.81949L7.65914 9.86484C7.803 10.0361 7.96145 10.1945 8.1327 10.3384L8.1798 10.3781C8.69031 10.8065 9.30694 11.0893 9.96469 11.1966C10.0363 11.2083 10.1096 11.2027 10.1786 11.1805C10.2476 11.1582 10.3103 11.1199 10.3616 11.0686L11.0749 10.3553C11.1216 10.3089 11.1836 10.2809 11.2493 10.2766C11.315 10.2722 11.3801 10.2918 11.4325 10.3317L12.8134 11.3906C12.8715 11.4352 12.9131 11.4979 12.9315 11.5688C12.9498 11.6397 12.9439 11.7148 12.9146 11.7819V11.7816Z" fill="#3F4659" stroke="#3F4659" stroke-width="0.2"/>
<path id="Vector_2" d="M9 0C6.79653 -0.000100139 4.66959 0.808154 3.02227 2.27158C1.37495 3.735 0.321736 5.75191 0.0622266 7.94004C-0.159699 9.84037 0.226013 11.7622 1.16402 13.4297L0.404648 16.0443C0.342202 16.2594 0.338664 16.4874 0.394404 16.7043C0.450145 16.9213 0.563118 17.1194 0.721527 17.2778C0.879936 17.4362 1.07797 17.5492 1.29495 17.6049C1.51193 17.6606 1.73989 17.6571 1.95504 17.5946L4.57031 16.836C5.92599 17.5992 7.4555 18.0001 9.01125 18C10.7901 17.9975 12.5284 17.4679 14.0064 16.4781C15.4845 15.4883 16.6361 14.0827 17.3158 12.4388C17.9955 10.7949 18.1728 8.98641 17.8252 7.2418C17.4777 5.4972 16.621 3.89471 15.3633 2.63672C14.5296 1.79834 13.538 1.13362 12.4457 0.681027C11.3535 0.228436 10.1823 -0.0030387 9 0ZM14.7175 14.7178C13.4377 16.0071 11.7574 16.8225 9.95273 17.03C8.18383 17.2372 6.39584 16.8577 4.86352 15.95C4.80968 15.9179 4.74981 15.8972 4.68764 15.8893C4.62546 15.8813 4.56231 15.8862 4.50211 15.9036L1.70016 16.7175C1.6422 16.7343 1.5808 16.7352 1.52237 16.7202C1.46393 16.7052 1.4106 16.6747 1.36793 16.6321C1.32526 16.5894 1.29483 16.5361 1.2798 16.4776C1.26478 16.4192 1.26571 16.3578 1.2825 16.2998L2.09637 13.4975C2.11383 13.4373 2.11872 13.3742 2.11074 13.312C2.10275 13.2498 2.08207 13.19 2.04996 13.1361C1.14226 11.6038 0.762826 9.81582 0.969961 8.04691C1.20329 6.08115 2.14962 4.26928 3.62961 2.95464C5.10961 1.64 7.02044 0.913948 9 0.914062C10.5993 0.914056 12.1626 1.3883 13.4924 2.27681C14.8221 3.16533 15.8585 4.42821 16.4705 5.90576C17.0825 7.3833 17.2426 9.00914 16.9306 10.5777C16.6185 12.1462 15.8484 13.587 14.7175 14.7178Z" fill="#3F4659" stroke="#3F4659" stroke-width="0.2"/>
</g>
<defs>
<clipPath id="clip0_0_39">
<rect width="18" height="18" fill="white"/>
</clipPath>
</defs>
</svg>
